paper_minjerk_fatigue_30cycles
version=1
nRows=317
nColumns=3
inDegrees=yes
endheader
time	r_shoulder_elev	r_elbow_flex
61.6700	20.000000	21.609275
61.6800	20.000000	22.246203
61.6900	20.000000	22.757594
61.7000	20.000000	23.031191
61.7100	20.000000	23.055309
61.7200	20.000000	22.919129
61.7300	20.000000	22.772002
61.7400	20.000000	22.760590
61.7500	20.000000	22.971241
61.7600	20.000000	23.401050
61.7700	20.000000	23.967049
61.7800	20.000000	24.545922
61.7900	20.000000	25.024583
61.8000	20.000000	25.339813
61.8100	20.000000	25.492976
61.8200	20.000000	25.538705
61.8300	20.000000	25.557716
61.8400	20.000000	25.628324
61.8500	20.000000	25.807827
61.8600	20.000000	26.126727
61.8700	20.000000	26.591154
61.8800	20.000000	27.186125
61.8900	20.000000	27.875387
61.9000	20.000000	28.599810
61.9100	20.000000	29.280939
61.9200	20.000000	29.835720
61.9300	20.000000	30.202191
61.9400	20.000000	30.367557
61.9500	20.000000	30.384721
61.9600	20.000000	30.365280
61.9700	20.000000	30.446420
61.9800	20.000000	30.742002
61.9900	20.000000	31.297825
62.0000	20.000000	32.071778
62.0100	20.000000	32.949927
62.0200	20.000000	33.793379
62.0300	20.000000	34.495775
62.0400	20.000000	35.025182
62.0500	20.000000	35.430688
62.0600	20.000000	35.810644
62.0700	20.000000	36.258238
62.0800	20.000000	36.811741
62.0900	20.000000	37.434905
62.1000	20.000000	38.038203
62.1100	20.000000	38.530794
62.1200	20.000000	38.876721
62.1300	20.000000	39.125518
62.1400	20.000000	39.399222
62.1500	20.000000	39.839514
62.1600	20.000000	40.539427
62.1700	20.000000	41.493286
62.1800	20.000000	42.591035
62.1900	20.000000	43.662001
62.2000	20.000000	44.548677
62.2100	20.000000	45.175537
62.2200	20.000000	45.579370
62.2300	20.000000	45.886027
62.2400	20.000000	46.244978
62.2500	20.000000	46.754528
62.2600	20.000000	47.415825
62.2700	20.000000	48.139787
62.2800	20.000000	48.804123
62.2900	20.000000	49.331217
62.3000	20.000000	49.745193
62.3100	20.000000	50.175127
62.3200	20.000000	50.797627
62.3300	20.000000	51.743465
62.3400	20.000000	53.013804
62.3500	20.000000	54.450779
62.3600	20.000000	55.783776
62.3700	20.000000	56.737070
62.3800	20.000000	57.153369
62.3900	20.000000	57.076646
62.4000	20.000000	56.752831
62.4100	20.000000	56.542421
62.4200	20.000000	56.779028
62.4300	20.000000	57.633590
62.4400	20.000000	59.043338
62.4500	20.000000	60.737094
62.4600	20.000000	62.346522
62.4700	20.000000	63.555327
62.4800	20.000000	64.222343
62.4900	20.000000	64.426999
62.5000	20.000000	64.420831
62.5100	20.000000	64.510231
62.5200	20.000000	64.924630
62.5300	20.000000	65.728051
62.5400	20.000000	66.809673
62.5500	20.000000	67.951782
62.5600	20.000000	68.938957
62.5700	20.000000	69.656075
62.5800	20.000000	70.131362
62.5900	20.000000	70.508937
62.6000	20.000000	70.968980
62.6100	20.000000	71.636842
62.6200	20.000000	72.524863
62.6300	20.000000	73.532400
62.6400	20.000000	74.500427
62.6500	20.000000	75.291378
62.6600	20.000000	75.854720
62.6700	20.000000	76.247827
62.6800	20.000000	76.604773
62.6900	20.000000	77.070672
62.7000	20.000000	77.734327
62.7100	20.000000	78.590540
62.7200	20.000000	79.547400
62.7300	20.000000	80.471832
62.7400	20.000000	81.249607
62.7500	20.000000	81.831622
62.7600	20.000000	82.247441
62.7700	20.000000	82.584230
62.7800	20.000000	82.945204
62.7900	20.000000	83.408942
62.8000	20.000000	84.006944
62.8100	20.000000	84.724957
62.8200	20.000000	85.521011
62.8300	20.000000	86.346460
62.8400	20.000000	87.158369
62.8500	20.000000	87.920092
62.8600	20.000000	88.596066
62.8700	20.000000	89.150878
62.8800	20.000000	89.559170
62.8900	20.000000	89.824106
62.9000	20.000000	89.993555
62.9100	20.000000	90.160602
62.9200	20.000000	90.440879
62.9300	20.000000	90.931196
62.9400	20.000000	91.665695
62.9500	20.000000	92.590657
62.9600	20.000000	93.573367
62.9700	20.000000	94.446054
62.9800	20.000000	95.069267
62.9900	20.000000	95.388432
63.0000	20.000000	95.458407
63.0100	20.000000	95.423817
63.0200	20.000000	95.462189
63.0300	20.000000	95.713495
63.0400	20.000000	96.225904
63.0500	20.000000	96.940352
63.0600	20.000000	97.719305
63.0700	20.000000	98.405897
63.0800	20.000000	98.887198
63.0900	20.000000	99.135143
63.1000	20.000000	99.210073
63.1100	20.000000	99.228996
63.1200	20.000000	99.315420
63.1300	20.000000	99.553346
63.1400	20.000000	99.963133
63.1500	20.000000	100.504859
63.1600	20.000000	101.102104
63.1700	20.000000	101.671961
63.1800	20.000000	102.148016
63.1900	20.000000	102.490342
63.2000	20.000000	102.684980
63.2100	20.000000	102.740181
63.2200	20.000000	102.685312
63.2300	20.000000	102.572583
63.2400	20.000000	102.476034
63.2500	20.000000	102.480764
63.2600	20.000000	102.660038
63.2700	20.000000	103.046216
63.2800	20.000000	103.608474
63.2900	20.000000	104.251067
63.3000	20.000000	104.838573
63.3100	20.000000	105.242043
63.3200	20.000000	105.388271
63.3300	20.000000	105.290247
63.3400	20.000000	105.043279
63.3500	20.000000	104.786255
63.3600	20.000000	104.644061
63.3700	20.000000	104.677045
63.3800	20.000000	104.861092
63.3900	20.000000	105.107750
63.4000	20.000000	105.314469
63.4100	20.000000	105.419876
63.4200	20.000000	105.435991
63.4300	20.000000	105.440411
63.4400	20.000000	105.531651
63.4500	20.000000	105.770096
63.4600	20.000000	106.135428
63.4700	20.000000	106.524298
63.4800	20.000000	106.792292
63.4900	20.000000	106.821599
63.5000	20.000000	106.581572
63.5100	20.000000	106.151292
63.5200	20.000000	105.690882
63.5300	20.000000	105.373400
63.5400	20.000000	105.309176
63.5500	20.000000	105.499156
63.5600	20.000000	105.840306
63.5700	20.000000	106.180552
63.5800	20.000000	106.395872
63.5900	20.000000	106.450417
63.6000	20.000000	106.408399
63.6100	20.000000	106.390929
63.6200	20.000000	106.499888
63.6300	20.000000	106.748496
63.6400	20.000000	107.037529
63.6500	20.000000	107.194304
63.6600	20.000000	107.059627
63.6700	20.000000	106.581532
63.6800	20.000000	105.867429
63.6900	20.000000	105.163027
63.7000	20.000000	104.760119
63.7100	20.000000	104.870395
63.7200	20.000000	105.521773
63.7300	20.000000	106.527239
63.7400	20.000000	107.545604
63.7500	20.000000	108.212519
63.7600	20.000000	108.287307
63.7700	20.000000	107.752223
63.7800	20.000000	106.820394
63.7900	20.000000	105.848271
63.8000	20.000000	105.190035
63.8100	20.000000	105.056385
63.8200	20.000000	105.438994
63.8300	20.000000	106.128977
63.8400	20.000000	106.817587
63.8500	20.000000	107.231813
63.8600	20.000000	107.244263
63.8700	20.000000	106.911219
63.8800	20.000000	106.427316
63.8900	20.000000	106.023221
63.9000	20.000000	105.856662
63.9100	20.000000	105.946795
63.9200	20.000000	106.178640
63.9300	20.000000	106.370161
63.9400	20.000000	106.365920
63.9500	20.000000	106.111241
63.9600	20.000000	105.672955
63.9700	20.000000	105.200262
63.9800	20.000000	104.847981
63.9900	20.000000	104.701029
64.0000	20.000000	104.735996
64.0100	20.000000	104.836026
64.0200	20.000000	104.848959
64.0300	20.000000	104.658980
64.0400	20.000000	104.237591
64.0500	20.000000	103.651761
64.0600	20.000000	103.028654
64.0700	20.000000	102.496433
64.0800	20.000000	102.129880
64.0900	20.000000	101.924472
64.1000	20.000000	101.806960
64.1100	20.000000	101.672831
64.1200	20.000000	101.430213
64.1300	20.000000	101.030083
64.1400	20.000000	100.472719
64.1500	20.000000	99.793680
64.1600	20.000000	99.041901
64.1700	20.000000	98.263359
64.1800	20.000000	97.496777
64.1900	20.000000	96.778029
64.2000	20.000000	96.143593
64.2100	20.000000	95.624420
64.2200	20.000000	95.229240
64.2300	20.000000	94.925837
64.2400	20.000000	94.633929
64.2500	20.000000	94.240141
64.2600	20.000000	93.634945
64.2700	20.000000	92.758585
64.2800	20.000000	91.635161
64.2900	20.000000	90.376103
64.3000	20.000000	89.146518
64.3100	20.000000	88.104897
64.3200	20.000000	87.340331
64.3300	20.000000	86.834591
64.3400	20.000000	86.466902
64.3500	20.000000	86.060995
64.3600	20.000000	85.455238
64.3700	20.000000	84.566253
64.3800	20.000000	83.419265
64.3900	20.000000	82.133227
64.4000	20.000000	80.868588
64.4100	20.000000	79.761331
64.4200	20.000000	78.871487
64.4300	20.000000	78.166269
64.4400	20.000000	77.541616
64.4500	20.000000	76.869293
64.4600	20.000000	76.047360
64.4700	20.000000	75.033334
64.4800	20.000000	73.849850
64.4900	20.000000	72.566042
64.5000	20.000000	71.267537
64.5100	20.000000	70.029666
64.5200	20.000000	68.902850
64.5300	20.000000	67.910269
64.5400	20.000000	67.051432
64.5500	20.000000	66.304550
64.5600	20.000000	65.625330
64.5700	20.000000	64.946243
64.5800	20.000000	64.183518
64.5900	20.000000	63.256480
64.6000	20.000000	62.116114
64.6100	20.000000	60.771616
64.6200	20.000000	59.300338
64.6300	20.000000	57.831313
64.6400	20.000000	56.504034
64.6500	20.000000	55.417105
64.6600	20.000000	54.588737
64.6700	20.000000	53.948152
64.6800	20.000000	53.364105
64.6900	20.000000	52.699508
64.7000	20.000000	51.868073
64.7100	20.000000	50.866798
64.7200	20.000000	49.768967
64.7300	20.000000	48.681147
64.7400	20.000000	47.685557
64.7500	20.000000	46.796898
64.7600	20.000000	45.956018
64.7700	20.000000	45.064421
64.7800	20.000000	44.042606
64.7900	20.000000	42.882134
64.8000	20.000000	41.663193
64.8100	20.000000	40.526003
64.8200	20.000000	39.607655
64.8300	20.000000	38.974401
